<svg aria-hidden="true" style="position: absolute; width: 0; height: 0; overflow: hidden;" version="1.1" xmlns="http://www.w3.org/2000/svg" xmlns:xlink="http://www.w3.org/1999/xlink">
<defs>
<symbol id="icon-youtube" viewBox="0 0 32 32">
<path d="M28.791 9.604c-0.152-0.563-0.449-1.077-0.861-1.49s-0.925-0.711-1.488-0.864c-2.088-0.573-10.441-0.583-10.441-0.583s-8.352-0.009-10.441 0.539c-0.563 0.16-1.075 0.462-1.487 0.878s-0.711 0.929-0.867 1.493c-0.551 2.088-0.556 6.419-0.556 6.419s-0.005 4.352 0.541 6.419c0.307 1.143 1.207 2.045 2.351 2.353 2.109 0.573 10.44 0.583 10.44 0.583s8.353 0.009 10.441-0.537c0.563-0.153 1.077-0.45 1.49-0.862s0.712-0.925 0.866-1.488c0.552-2.087 0.556-6.416 0.556-6.416s0.027-4.353-0.543-6.441zM13.328 20.007l0.007-8 6.943 4.007-6.949 3.993z"></path>
</symbol>
<symbol id="icon-linkedIn" viewBox="0 0 32 32">
<path d="M25.75 4h-19.5c-1.237 0-2.25 1.013-2.25 2.25v19.5c0 1.238 1.013 2.25 2.25 2.25h19.5c1.238 0 2.25-1.012 2.25-2.25v-19.5c0-1.237-1.012-2.25-2.25-2.25zM13 23.5h-3v-10.5h3v10.5zM11.5 11.5c-0.829 0-1.5-0.671-1.5-1.5s0.671-1.5 1.5-1.5c0.829 0 1.5 0.671 1.5 1.5s-0.671 1.5-1.5 1.5zM23.5 23.5h-3v-6c0-0.829-0.671-1.5-1.5-1.5s-1.5 0.671-1.5 1.5v6h-3v-10.5h3v1.861c0.619-0.848 1.565-1.861 2.625-1.861 1.866 0 3.375 1.678 3.375 3.75v6.75z"></path>
</symbol>
<symbol id="icon-instagram" viewBox="0 0 32 32">
<path d="M15.998 6.161c3.206 0 3.585 0.014 4.846 0.071 1.172 0.052 1.804 0.248 2.227 0.412 0.558 0.216 0.961 0.478 1.378 0.895 0.422 0.422 0.679 0.82 0.9 1.378 0.164 0.422 0.361 1.059 0.412 2.226 0.056 1.266 0.070 1.645 0.070 4.847s-0.014 3.585-0.070 4.847c-0.052 1.172-0.248 1.804-0.412 2.227-0.216 0.558-0.478 0.961-0.895 1.378-0.422 0.422-0.82 0.679-1.378 0.9-0.422 0.164-1.060 0.361-2.227 0.412-1.266 0.056-1.645 0.070-4.847 0.070s-3.585-0.014-4.847-0.070c-1.172-0.052-1.804-0.248-2.226-0.412-0.558-0.216-0.961-0.478-1.378-0.895-0.422-0.422-0.679-0.82-0.9-1.378-0.164-0.422-0.361-1.060-0.412-2.227-0.056-1.266-0.071-1.645-0.071-4.847s0.014-3.585 0.071-4.847c0.052-1.172 0.248-1.804 0.412-2.226 0.216-0.558 0.478-0.961 0.895-1.378 0.422-0.422 0.82-0.679 1.378-0.9 0.422-0.164 1.059-0.361 2.226-0.412 1.261-0.056 1.641-0.071 4.847-0.071h0.001zM15.998 4.001c-3.258 0-3.665 0.014-4.945 0.071-1.275 0.056-2.151 0.262-2.91 0.558-0.792 0.309-1.462 0.717-2.127 1.387-0.67 0.666-1.078 1.336-1.387 2.123-0.295 0.764-0.502 1.636-0.558 2.91-0.056 1.285-0.071 1.692-0.071 4.949s0.014 3.665 0.071 4.945c0.056 1.275 0.262 2.151 0.558 2.91 0.31 0.792 0.717 1.462 1.387 2.127 0.665 0.665 1.336 1.078 2.123 1.383 0.764 0.296 1.636 0.502 2.91 0.558 1.279 0.056 1.687 0.070 4.945 0.070s3.666-0.014 4.945-0.070c1.275-0.056 2.151-0.262 2.91-0.558 0.787-0.304 1.458-0.717 2.123-1.383s1.078-1.336 1.383-2.123c0.296-0.764 0.502-1.636 0.558-2.91 0.056-1.279 0.070-1.687 0.070-4.945s-0.014-3.665-0.070-4.945c-0.056-1.275-0.262-2.151-0.558-2.91-0.295-0.797-0.703-1.467-1.373-2.133-0.665-0.665-1.336-1.078-2.123-1.383-0.764-0.295-1.636-0.502-2.91-0.558-1.284-0.061-1.692-0.075-4.949-0.075l-0.001 0.001z"></path>
<path d="M15.997 9.836c-3.402 0-6.163 2.76-6.163 6.163s2.76 6.163 6.163 6.163c3.403 0 6.163-2.76 6.163-6.163s-2.76-6.163-6.163-6.163zM15.997 19.997c-2.208 0-3.998-1.79-3.998-3.998s1.79-3.998 3.998-3.998c2.208 0 3.998 1.79 3.998 3.998s-1.79 3.998-3.998 3.998z"></path>
<path d="M23.842 9.592c0 0.795-0.644 1.439-1.439 1.439s-1.439-0.644-1.439-1.439c0-0.795 0.644-1.439 1.439-1.439s1.439 0.644 1.439 1.439z"></path>
</symbol>
<symbol id="icon-x" viewBox="0 0 24 24">
<path d="M16.192 6.34424L11.949 10.5862L7.70697 6.34424L6.29297 7.75824L10.535 12.0002L6.29297 16.2422L7.70697 17.6562L11.949 13.4142L16.192 17.6562L17.606 16.2422L13.364 12.0002L17.606 7.75824L16.192 6.34424Z"></path>
</symbol>
<symbol id="icon-burger" viewBox="0 0 24 24">
<path d="M4 6H20V8H4V6ZM4 11H20V13H4V11ZM4 16H20V18H4V16Z"></path>
</symbol>
<symbol id="icon-star" viewBox="0 0 24 24">
<path d="M6.51603 14.323L5.02603 20.775C4.97989 20.9704 4.99374 21.1751 5.06577 21.3625C5.1378 21.5499 5.26467 21.7112 5.4298 21.8253C5.59492 21.9395 5.79064 22.0012 5.99138 22.0024C6.19212 22.0036 6.38855 21.9442 6.55503 21.832L12 18.202L17.445 21.832C17.6154 21.9451 17.8162 22.0033 18.0207 21.9988C18.2251 21.9944 18.4232 21.9274 18.5884 21.8069C18.7536 21.6865 18.878 21.5183 18.9448 21.3251C19.0116 21.1318 19.0176 20.9228 18.962 20.726L17.133 14.326L21.669 10.244C21.8143 10.1132 21.9181 9.94266 21.9674 9.75351C22.0168 9.56436 22.0097 9.36488 21.9469 9.17974C21.8841 8.99461 21.7685 8.83193 21.6142 8.71183C21.46 8.59173 21.2739 8.51947 21.079 8.504L15.378 8.05L12.911 2.589C12.8324 2.41316 12.7045 2.26384 12.5428 2.15906C12.3812 2.05429 12.1927 1.99854 12 1.99854C11.8074 1.99854 11.6189 2.05429 11.4572 2.15906C11.2956 2.26384 11.1677 2.41316 11.089 2.589L8.62203 8.05L2.92103 8.503C2.72948 8.51818 2.54636 8.58821 2.39358 8.70473C2.2408 8.82125 2.12482 8.97932 2.05952 9.16003C1.99422 9.34074 1.98236 9.53644 2.02537 9.72371C2.06838 9.91098 2.16443 10.0819 2.30203 10.216L6.51603 14.323ZM9.36903 9.997C9.54752 9.98294 9.71895 9.92112 9.86533 9.81802C10.0117 9.71491 10.1277 9.57433 10.201 9.411L12 5.43L13.799 9.411C13.8724 9.57433 13.9883 9.71491 14.1347 9.81802C14.2811 9.92112 14.4525 9.98294 14.631 9.997L18.603 10.312L15.332 13.256C15.048 13.512 14.935 13.906 15.039 14.274L16.292 18.659L12.556 16.168C12.392 16.0579 12.199 15.9992 12.0015 15.9992C11.804 15.9992 11.611 16.0579 11.447 16.168L7.54303 18.771L8.59303 14.225C8.63153 14.0578 8.62636 13.8835 8.57802 13.7189C8.52969 13.5543 8.43981 13.4048 8.31703 13.285L5.27903 10.323L9.36903 9.997Z"></path>
</symbol>
<symbol id="icon-star-fillled" viewBox="0 0 24 24">
<path d="M6.51603 14.323L5.02603 20.775C4.97989 20.9704 4.99374 21.1751 5.06577 21.3625C5.1378 21.5499 5.26467 21.7112 5.4298 21.8253C5.59492 21.9395 5.79064 22.0012 5.99138 22.0024C6.19212 22.0036 6.38855 21.9442 6.55503 21.832L12 18.202L17.445 21.832C17.6154 21.9451 17.8162 22.0033 18.0207 21.9988C18.2251 21.9944 18.4232 21.9274 18.5884 21.8069C18.7536 21.6865 18.878 21.5183 18.9448 21.3251C19.0116 21.1318 19.0176 20.9228 18.962 20.726L17.133 14.326L21.669 10.244C21.8143 10.1132 21.9181 9.94266 21.9674 9.75351C22.0168 9.56436 22.0097 9.36488 21.9469 9.17974C21.8841 8.99461 21.7685 8.83193 21.6142 8.71183C21.46 8.59173 21.2739 8.51947 21.079 8.504L15.378 8.05L12.911 2.589C12.8324 2.41316 12.7045 2.26384 12.5428 2.15906C12.3812 2.05429 12.1927 1.99854 12 1.99854C11.8074 1.99854 11.6189 2.05429 11.4572 2.15906C11.2956 2.26384 11.1677 2.41316 11.089 2.589L8.62203 8.05L2.92103 8.503C2.72948 8.51818 2.54636 8.58821 2.39358 8.70473C2.2408 8.82125 2.12482 8.97932 2.05952 9.16003C1.99422 9.34074 1.98236 9.53644 2.02537 9.72371C2.06838 9.91098 2.16443 10.0819 2.30203 10.216L6.51603 14.323Z"></path>
</symbol>
</defs>
</svg>
