<svg aria-hidden="true" style="position: absolute; width: 0; height: 0; overflow: hidden;" viewBox="0 0 81 31" xmlns="http://www.w3.org/2000/svg">
<path d="M13.1629 2.09967e-05C13.0028 0.00015209 12.8339 0.000290295 12.6756 0.0191782C10.8355 0.172676 9.14452 0.954351 7.9403 2.37838C6.62981 3.9281 6.31289 5.56087 6.32824 7.53378L2.8225 7.52842C2.66547 7.52828 2.50314 7.52379 2.33852 7.51923C1.88113 7.50657 1.40604 7.49341 0.97757 7.57191C0.719175 7.61928 0.493704 7.74495 0.311985 7.93411C-0.00616872 8.26532 -0.0138996 8.68367 0.00677402 9.11226C0.0393812 9.78803 0.0974199 10.4647 0.155392 11.1406C0.186929 11.5082 0.218473 11.876 0.245881 12.2432L0.827754 19.7617L1.11087 23.3925C1.12481 23.5717 1.13595 23.7527 1.14714 23.9345C1.18712 24.5843 1.22769 25.2436 1.39923 25.8652C1.69558 26.9222 2.28292 27.8746 3.09431 28.6143C3.80343 29.2582 4.66054 29.7176 5.58966 29.9513C6.37553 30.141 7.28853 30.1195 8.14613 30.0994C8.40139 30.0934 8.65173 30.0875 8.89236 30.0873L13.6119 30.0859L17.7338 30.0877C17.959 30.0877 18.1908 30.0932 18.4254 30.0988C19.1868 30.1169 19.9803 30.1358 20.6918 29.9699C21.6926 29.737 22.7055 29.1875 23.4362 28.463C24.1161 27.7885 24.6594 26.8879 24.8968 25.9575C25.0784 25.2456 25.124 24.4648 25.1682 23.7075C25.1825 23.4633 25.1966 23.2214 25.2151 22.9852L25.6019 18.0057L26.0843 11.8916C26.1076 11.5896 26.1378 11.2844 26.1681 10.9785C26.2337 10.3156 26.2998 9.64761 26.2983 8.99245C26.2976 8.58945 26.2123 8.21351 25.9235 7.91424C25.7248 7.70802 25.3999 7.60732 25.125 7.56247C24.7129 7.49528 24.2611 7.50727 23.824 7.51886C23.6623 7.52315 23.5027 7.52738 23.3479 7.52754C22.2454 7.52539 21.1424 7.52929 20.0399 7.53917L19.9925 7.53986C20.0184 5.42706 19.548 3.61406 18.0291 2.06884C16.7599 0.753782 15.0134 0.00765668 13.186 0L13.1629 2.09967e-05ZM19.8448 12.0514L19.9042 12.0549C19.9058 12.0589 19.9073 12.0627 19.9087 12.0661C19.9094 12.068 19.9102 12.0697 19.9109 12.0714C19.9134 12.0777 19.9158 12.0832 19.9179 12.0879L19.9203 12.0936C19.9312 12.1183 19.9332 12.1228 19.9327 12.1626C19.9137 14.7533 19.2202 18.0888 17.3815 19.9862C15.6788 21.7432 13.0347 22.6054 10.6235 22.6532C11.7466 20.5408 13.5514 18.5374 15.413 17.0496C15.7009 16.8197 16.0023 16.6118 16.3039 16.4039C16.4981 16.27 16.6923 16.1361 16.8831 15.9961C17.0683 15.8602 17.3177 15.6758 17.344 15.4279C17.368 15.1996 17.2466 15.0225 17.1037 14.8594C16.9035 14.7434 16.757 14.695 16.5284 14.762C16.2038 14.8573 15.8768 15.0974 15.5816 15.3141C15.5034 15.3715 15.4274 15.4274 15.3543 15.4783C12.9673 17.1687 10.9838 19.366 9.54598 21.913C9.49749 19.8408 9.96936 18.105 11.2402 16.4381C13.1474 13.9367 16.7978 12.4666 19.8448 12.0514ZM1.31457 8.82615L24.9974 8.82578C24.9133 9.62341 24.8589 10.4283 24.8045 11.232C24.7743 11.6797 24.744 12.1274 24.7086 12.5731L24.0709 20.5641L23.8325 23.5088C23.8219 23.6367 23.8122 23.7651 23.8025 23.8939C23.7642 24.402 23.7256 24.9146 23.6276 25.412C23.5269 25.9225 23.3315 26.3662 23.0668 26.8114C22.9647 26.9663 22.8539 27.1155 22.735 27.258C22.0485 28.0784 20.9215 28.6894 19.851 28.7704C19.2681 28.8144 18.6683 28.8034 18.0742 28.7925C17.8171 28.7877 17.5609 28.783 17.3075 28.7828L12.3941 28.7813L8.48425 28.7831C8.29567 28.7832 8.10373 28.7872 7.91036 28.7912C7.31738 28.8035 6.71023 28.816 6.14032 28.7179C5.39281 28.5874 4.69423 28.2581 4.11819 27.7644C3.42818 27.1825 2.93297 26.4034 2.69933 25.5316C2.5395 24.9538 2.49965 24.3381 2.46052 23.7336C2.45069 23.5817 2.4409 23.4306 2.42927 23.2809L2.19673 20.2847L1.31457 8.82615ZM20.3707 10.663L20.3531 10.6648C16.7581 11.0807 12.6654 12.5594 10.3417 15.4715C8.8481 17.3431 8.03212 19.7775 8.30163 22.1748C8.36081 22.7012 8.48003 23.2043 8.65187 23.7049C8.63243 23.7547 8.60871 23.8143 8.58172 23.8821C8.28668 24.6236 7.60091 26.3472 7.83942 26.8569C7.90841 27.0042 8.04893 27.1031 8.20129 27.1515C8.26408 27.1712 8.3273 27.1825 8.39264 27.1902C8.59404 27.157 8.78021 27.1154 8.90144 26.9353C9.03162 26.7415 9.16492 26.276 9.27894 25.8779C9.33326 25.6882 9.38321 25.5138 9.4264 25.3912C9.5741 24.9717 9.74181 24.559 9.9093 24.1469L9.91125 24.1421C9.93086 24.0938 9.95046 24.0456 9.97002 23.9974C12.9345 24.0061 16.1007 23.0782 18.2453 20.9622C20.6437 18.5953 21.2478 14.7787 21.2526 11.5488C21.2529 11.2942 21.2354 10.992 21.0491 10.7972C20.9346 10.6774 20.7622 10.6413 20.6021 10.6448C20.5249 10.6465 20.4476 10.6548 20.3707 10.663ZM12.8747 1.29533C12.9895 1.28822 13.1048 1.2818 13.2196 1.2826C14.6277 1.29249 16.0376 1.92227 17.0272 2.91464C18.3744 4.2659 18.65 5.69982 18.6529 7.53389L13.4938 7.53108L7.68838 7.5383C7.64397 5.96179 7.89788 4.52185 8.93215 3.27702C9.92574 2.08116 11.3438 1.43209 12.8747 1.29533Z"/>
<path d="M19.9043 12.0548L19.8448 12.0514C16.7978 12.4665 13.1474 13.9366 11.2403 16.4381C9.9694 18.1049 9.49753 19.8408 9.54602 21.913C10.9838 19.366 12.9673 17.1686 15.3544 15.4783C15.4275 15.4273 15.5035 15.3715 15.5817 15.3141C15.8768 15.0974 16.2039 14.8572 16.5284 14.762C16.757 14.6949 16.9036 14.7433 17.1038 14.8594C17.2467 15.0224 17.3681 15.1996 17.344 15.4279C17.3178 15.6757 17.0684 15.8601 16.8832 15.9961C16.6924 16.136 16.4981 16.2699 16.304 16.4038C16.0024 16.6118 15.701 16.8196 15.4131 17.0495C13.5514 18.5374 11.7466 20.5407 10.6235 22.6531C13.0348 22.6053 15.6789 21.7432 17.3816 19.9861C19.2203 18.0887 19.9138 14.7532 19.9327 12.1625C19.9332 12.1228 19.9313 12.1182 19.9204 12.0935C19.9178 12.0876 19.9146 12.0804 19.9109 12.0714C19.9089 12.0664 19.9067 12.061 19.9043 12.0548ZM20.3531 10.6648L20.3707 10.6629C20.4477 10.6547 20.5249 10.6465 20.6021 10.6448C20.7622 10.6412 20.9347 10.6773 21.0491 10.7971C21.2354 10.9919 21.253 11.2941 21.2526 11.5488C21.2478 14.7786 20.6437 18.5952 18.2453 20.9621C16.1007 23.0781 12.9345 24.006 9.97006 23.9973C9.9505 24.0455 9.9309 24.0938 9.91129 24.142L9.90933 24.1468C9.74184 24.5589 9.57413 24.9716 9.42644 25.3912C9.38325 25.5137 9.3333 25.6882 9.27899 25.8778C9.16497 26.2759 9.03166 26.7414 8.90148 26.9353C8.78025 27.1154 8.59408 27.1569 8.39268 27.1901C8.32734 27.1825 8.26412 27.1712 8.20133 27.1515C8.04896 27.103 7.90845 27.0042 7.83946 26.8569C7.60095 26.3471 8.28672 24.6236 8.58176 23.882C8.60875 23.8142 8.63247 23.7546 8.65191 23.7049C8.48007 23.2043 8.36084 22.7011 8.30167 22.1747C8.03216 19.7775 8.84814 17.3431 10.3417 15.4714C12.6654 12.5593 16.7581 11.0806 20.3531 10.6648Z"/>
<path d="M20.3708 10.6629L20.3532 10.6648C16.7582 11.0806 12.6655 12.5593 10.3417 15.4714C8.84818 17.343 8.0322 19.7775 8.30171 22.1747C8.36089 22.7011 8.48011 23.2043 8.65195 23.7049C8.63251 23.7546 8.60879 23.8142 8.5818 23.882C8.28677 24.6236 7.60099 26.3471 7.8395 26.8569C7.90849 27.0042 8.04901 27.103 8.20138 27.1515C8.26416 27.1712 8.32738 27.1825 8.39272 27.1901C8.59413 27.1569 8.78029 27.1154 8.90152 26.9353C9.0317 26.7414 9.16494 26.2762 9.27896 25.8781C9.3333 25.6883 9.38328 25.5138 9.42648 25.3912C9.57418 24.9716 9.74188 24.559 9.90938 24.1468C9.91003 24.1452 9.91068 24.1436 9.91133 24.142C9.93094 24.0938 9.95054 24.0455 9.97011 23.9973C12.9346 24.006 16.1008 23.0781 18.2454 20.9621C20.6437 18.5952 21.2479 14.7786 21.2526 11.5488C21.253 11.2941 21.2355 10.9919 21.0492 10.7971C20.9347 10.6773 20.7622 10.6412 20.6022 10.6448C20.5249 10.6465 20.4477 10.6547 20.3708 10.6629ZM19.8449 12.0514L19.9043 12.0548C19.9067 12.061 19.9089 12.0664 19.9109 12.0714C19.9147 12.0804 19.9178 12.0876 19.9204 12.0935C19.9313 12.1182 19.9333 12.1228 19.9328 12.1625C19.9138 14.7532 19.2203 18.0887 17.3816 19.9861C15.6789 21.7432 13.0348 22.6053 10.6235 22.6531C11.7467 20.5407 13.5515 18.5374 15.4131 17.0495C15.701 16.8196 16.0024 16.6118 16.304 16.4038C16.4982 16.2699 16.6924 16.136 16.8832 15.9961C17.0684 15.8601 17.3178 15.6757 17.3441 15.4279C17.3681 15.1996 17.2467 15.0224 17.1038 14.8594C16.9036 14.7433 16.7571 14.6949 16.5284 14.762C16.2039 14.8572 15.8769 15.0974 15.5817 15.3141C15.5035 15.3715 15.4275 15.4273 15.3544 15.4783C12.9674 17.1686 10.9839 19.366 9.54606 21.913C9.49757 19.8408 9.96944 18.1049 11.2403 16.4381C13.1475 13.9366 16.7979 12.4665 19.8449 12.0514Z"/>
<path d="M66.6602 19.4422C66.5703 16.8958 64.4334 14.9046 61.8874 14.9941C59.3406 15.0832 57.3486 17.2208 57.4385 19.7673C57.5284 22.3141 59.666 24.3057 62.2124 24.2158C64.7589 24.1255 66.7501 21.9883 66.6602 19.4422ZM62.0477 16.3784C62.7905 16.4085 63.3925 16.587 63.9587 17.0886C64.6336 17.6858 65.0099 18.5485 65.0591 19.4422C65.1087 20.3367 64.8272 21.2434 64.2183 21.9098C63.6618 22.5187 62.9678 22.7912 62.1547 22.8319C61.4127 22.8242 60.8005 22.7087 60.2152 22.2218C59.5314 21.6531 59.1449 20.811 59.0721 19.9324C58.9969 19.0188 59.236 18.0742 59.8426 17.3734C60.4442 16.6786 61.1548 16.4394 62.0477 16.3784Z"/>
<path d="M53.8375 19.0604C53.534 16.5282 51.2331 14.7233 48.7017 15.0316C46.1771 15.3391 44.378 17.6326 44.6807 20.1578C44.9834 22.6831 47.2735 24.4864 49.7993 24.1886C52.3318 23.8896 54.141 21.5921 53.8375 19.0604ZM48.8494 16.4159C49.5881 16.3557 50.2573 16.4334 50.8811 16.8625C51.5815 17.3442 52.022 18.0882 52.1676 18.9192C52.3329 19.8629 52.1775 20.8721 51.6097 21.6584C51.1127 22.3471 50.4916 22.6888 49.6642 22.8206C48.9084 22.8593 48.2407 22.8133 47.6042 22.363C46.9177 21.8793 46.4551 21.1394 46.3211 20.3104C46.1668 19.3959 46.3516 18.3436 46.8975 17.5829C47.3772 16.9146 48.047 16.544 48.8494 16.4159Z"/>
<path d="M76.3325 14.9886C76.3097 14.9894 76.2874 14.9911 76.2646 14.9939C75.1032 15.131 74.0574 15.6932 73.3272 16.6149C72.4942 17.6673 72.2082 19.0015 72.3725 20.3211C72.5072 21.48 73.1003 22.5368 74.0192 23.2564C75.1077 24.1021 76.4879 24.3169 77.8327 24.133C78.6109 24.0264 79.7804 23.6538 80.2779 23.0062C80.4178 22.8244 80.4882 22.6023 80.456 22.3729C80.4333 22.2118 80.3625 22.0576 80.2299 21.9588C80.0773 21.8453 79.8739 21.8311 79.6929 21.8664C79.4413 21.9155 79.2157 22.0711 79.0018 22.2187C78.9567 22.2498 78.9122 22.2805 78.868 22.3098C77.9287 22.798 76.887 23.0274 75.8538 22.6926C75.1187 22.4506 74.5114 21.923 74.1697 21.2282C73.9915 20.8731 73.9028 20.496 73.8239 20.1092H78.2566C78.441 20.1094 78.639 20.1157 78.8425 20.1223C79.368 20.1391 79.9308 20.1572 80.3946 20.0742C80.5268 20.0506 80.6529 19.9798 80.7489 19.8862C80.967 19.6739 81.0056 19.3733 80.9991 19.0833C80.9743 17.9728 80.4528 16.8773 79.6449 16.126C78.7122 15.2583 77.587 14.9321 76.3325 14.9886ZM76.4692 16.3762C77.142 16.2972 77.8205 16.4689 78.375 16.859C79.0376 17.3301 79.3858 17.9988 79.5253 18.7859C78.9634 18.7927 78.4007 18.7912 77.8383 18.7896C77.5572 18.7889 77.276 18.7881 76.9952 18.7884L73.8776 18.7924C74.0204 18.3128 74.186 17.8772 74.4927 17.4753C74.9869 16.8281 75.6711 16.4811 76.4692 16.3762Z"/>
<path d="M51.6448 11.6919C53.3086 11.6525 54.9813 11.6891 56.6463 11.6862C57.5945 11.6846 58.8059 11.6077 59.7264 11.7025C59.8745 11.718 59.9924 11.7599 60.1051 11.8583C60.2654 11.9982 60.372 12.2094 60.3776 12.4233C60.3825 12.6165 60.2642 12.8382 60.1246 12.968C60.0181 13.0664 59.8911 13.1059 59.7508 13.1287C59.3676 13.1905 58.9446 13.1543 58.5557 13.1539L56.4901 13.1502L56.4892 20.8164C56.4921 21.4624 56.5739 22.8714 56.4766 23.421C56.4461 23.5935 56.3835 23.7655 56.2647 23.8977C56.137 24.0397 55.9608 24.1113 55.7713 24.1154C55.5728 24.1198 55.3791 24.0763 55.236 23.9319C55.0675 23.7631 55.0057 23.5146 54.985 23.2839C54.9467 22.8584 54.9817 22.4081 54.9866 21.9806C54.9939 21.3481 54.9882 20.7151 54.9878 20.0826L54.9927 13.149C54.3057 13.1523 51.9277 13.2617 51.4407 13.0408C51.2629 12.9603 51.1512 12.8358 51.0867 12.6507C51.0179 12.4538 51.0492 12.2439 51.1487 12.0633C51.2651 11.8518 51.4205 11.7611 51.6448 11.6919Z"/>
<path d="M40.7616 14.9947C41.3796 14.9597 41.9835 14.9992 42.5836 15.1598C43.2172 15.3295 44.1863 15.7033 44.5138 16.3045C44.6039 16.4701 44.6509 16.6682 44.5873 16.8512C44.5223 17.0379 44.345 17.1807 44.1663 17.2539C43.6452 17.4675 42.9928 16.7495 42.5025 16.5649C41.7053 16.2642 40.7465 16.2809 39.9709 16.643C39.2583 16.9757 38.746 17.6058 38.4806 18.3376C38.1727 19.187 38.1467 20.2946 38.5377 21.1224C38.9001 21.8896 39.567 22.4257 40.3581 22.7052C41.2633 23.0253 42.2065 22.8549 43.0524 22.4493C43.3146 22.3074 43.5526 22.1182 43.8513 22.0564C44.0056 22.0246 44.158 22.0413 44.2896 22.1324C44.4516 22.2447 44.5825 22.4668 44.604 22.6629C44.6242 22.8467 44.5527 23.016 44.4387 23.1571C43.9437 23.7705 42.8421 24.0789 42.0924 24.1708C40.7912 24.3303 39.4359 24.0695 38.3946 23.2393C37.4158 22.4741 36.793 21.3417 36.6711 20.1055C36.5422 18.8737 36.9034 17.6408 37.6766 16.6735C38.4603 15.7098 39.5298 15.1265 40.7616 14.9947Z"/>
<path d="M68.5524 12.6667C68.5785 12.6655 68.6041 12.6642 68.6297 12.6634C68.8604 12.6561 69.0922 12.7179 69.2554 12.888C69.6442 13.2943 69.4897 14.6636 69.4852 15.2241C70.0148 15.2273 71.3035 15.0626 71.7005 15.4157C71.8441 15.5438 71.9027 15.7212 71.9031 15.9103C71.9039 16.0938 71.8563 16.2695 71.72 16.3989C71.3491 16.7503 70.0095 16.612 69.4844 16.6088C69.4893 17.7347 69.3371 21.2054 69.6841 22.0596C70.2451 23.441 71.4609 22.226 72.1545 22.5526C72.3029 22.6226 72.4246 22.7703 72.4795 22.924C72.5576 23.1429 72.488 23.3385 72.3981 23.5395C72.3827 23.5566 72.3672 23.5732 72.3518 23.5899C71.9328 24.0264 71.1457 24.1313 70.5676 24.1395C69.8969 24.1492 69.2627 24.0353 68.7672 23.5391C68.4093 23.1803 68.1868 22.6881 68.0777 22.1983C67.9093 21.4417 67.9789 20.6042 67.9793 19.8325L67.9813 16.61C67.5746 16.6096 67.1674 16.6067 66.7606 16.6002C66.6935 16.5583 66.628 16.5152 66.569 16.4619C66.4083 16.3171 66.3351 16.1011 66.3294 15.8884C66.3245 15.7102 66.379 15.5345 66.512 15.4112C66.8407 15.1069 67.5636 15.216 67.9813 15.2233C67.9801 14.6371 67.8516 13.586 68.0729 13.0702C68.1713 12.8412 68.332 12.7582 68.5524 12.6667Z"/>
<path fill-rule="evenodd" clip-rule="evenodd" d="M36.2793 12.4473C35.5784 12.3784 32.1478 12.4028 30.9576 12.4203C30.7388 12.4235 30.5358 12.4384 30.3576 12.4516C30.2059 12.4627 30.0722 12.4726 29.9618 12.4728C29.9618 12.4728 29.4881 12.5839 29.3345 12.7973C29.2341 12.937 29.1998 13.1143 29.1758 13.2811C29.0487 14.1673 28.9743 15.0716 28.9001 15.9727C28.8611 16.447 28.8221 16.9205 28.7756 17.3901L28.3242 21.9457C28.3122 22.0674 28.2914 22.2337 28.2677 22.4224C28.1913 23.0326 28.0854 23.8778 28.1539 24.2142C28.1918 24.4006 28.2906 24.5547 28.4555 24.6518C28.6181 24.7477 28.8025 24.8023 28.9876 24.8337L28.9893 24.8337C29.3721 24.8329 29.9492 24.8389 30.5941 24.8456C31.9312 24.8594 35.3311 24.8762 36.1217 24.8422C36.2793 24.8353 36.4464 24.8219 36.595 24.7658C36.7945 24.6901 36.9586 24.5457 37.0375 24.3447C37.117 24.1426 37.0993 23.916 37.0092 23.7207C36.9186 23.5239 36.7962 23.4189 36.5908 23.353H29.7572C29.8712 22.3469 29.9732 21.3396 30.063 20.3311L30.1437 19.5113L30.1515 19.43C30.2049 19.4307 30.2752 19.4318 30.3588 19.4331C31.0548 19.4436 34.4424 19.468 34.8741 19.4036C35.0325 19.38 35.1804 19.3401 35.2963 19.2234C35.4463 19.0721 35.5087 18.863 35.4963 18.6531C35.4858 18.4749 35.4069 18.2809 35.2715 18.1609C35.1811 18.0812 35.0691 18.0295 34.9495 18.0128C34.5461 17.9541 31.5343 17.97 30.774 17.9798C30.5701 17.9824 30.4006 17.9846 30.2911 17.9848L30.6375 13.8978H34.3253C34.5133 13.898 34.7092 13.9042 34.908 13.9106C35.3893 13.926 35.8881 13.942 36.3357 13.8726C36.4949 13.8482 36.6314 13.7937 36.7469 13.6778C36.8883 13.5358 36.9657 13.321 36.9548 13.1217C36.9437 12.9183 36.8343 12.7247 36.6752 12.5998C36.554 12.5046 36.4312 12.4619 36.2793 12.4473Z"/>
</svg>
